<svg xmlns="http://www.w3.org/2000/svg" viewBox="0 0 24 24" fill="#E4405F">
  <path d="M12 2.163c3.204 0 3.584.012 4.85.07 1.366.062 2.633.33 3.608 1.305.975.975 1.243 2.242 1.305 3.608.058 1.266.07 1.646.07 4.85s-.012 3.584-.07 4.85c-.062 1.366-.33 2.633-1.305 3.608-.975.975-2.242 1.243-3.608 1.305-1.266.058-1.646.07-4.85.07s-3.584-.012-4.85-.07c-1.366-.062-2.633-.33-3.608-1.305-.975-.975-1.243-2.242-1.305-3.608C2.175 15.747 2.163 15.367 2.163 12s.012-3.584.07-4.85c.062-1.366.33-2.633 1.305-3.608.975-.975 2.242-1.243 3.608-1.305C8.416 2.175 8.796 2.163 12 2.163zm0 3.675a6.162 6.162 0 100 12.324 6.162 6.162 0 000-12.324zm0 10.162a4 4 0 110-8 4 4 0 010 8zm6.406-11.845a1.44 1.44 0 11-2.88 0 1.44 1.44 0 012.88 0z"></path>
</svg>
