<svg xmlns="http://www.w3.org/2000/svg" viewBox="0 0 24 24" fill="#0A66C2">
  <path d="M20.447 20.452H16.89v-5.569c0-1.328-.027-3.037-1.852-3.037-1.853 0-2.136 1.445-2.136 2.939v5.667H9.344V9h3.415v1.561h.046c.476-.9 1.637-1.85 3.37-1.85 3.6 0 4.266 2.368 4.266 5.455v6.286zM5.337 7.433a1.988 1.988 0 110-3.976 1.988 1.988 0 010 3.976zM6.996 20.452H3.678V9h3.318v11.452zM22.225 0H1.771C.792 0 0 .774 0 1.729v20.542C0 23.227.792 24 1.771 24h20.451C23.2 24 24 23.227 24 22.271V1.729C24 .774 23.2 0 22.222 0z"></path>
</svg>
