<svg xmlns="http://www.w3.org/2000/svg" viewBox="0 0 24 24" fill="#25D366">
  <path d="M12.04 2C6.535 2 2.04 6.495 2.04 12c0 1.94.505 3.73 1.438 5.298L2 22l4.856-1.42A9.948 9.948 0 0012.04 22c5.505 0 10-4.495 10-10s-4.495-10-10-10zm0 18.2c-1.56 0-3.03-.456-4.267-1.238l-.306-.182-2.884.844.77-2.808-.2-.288A8.167 8.167 0 013.88 12c0-4.5 3.66-8.16 8.16-8.16 4.5 0 8.16 3.66 8.16 8.16 0 4.5-3.66 8.16-8.16 8.16zm4.48-5.66c-.244-.122-1.45-.715-1.674-.796-.224-.082-.387-.122-.55.122-.163.244-.632.796-.775.96-.143.163-.285.183-.53.061-.244-.122-1.03-.379-1.96-1.21-.724-.646-1.213-1.444-1.356-1.688-.143-.244-.015-.375.107-.496.11-.11.244-.285.367-.428.122-.143.163-.244.244-.407.082-.163.041-.306-.02-.428-.061-.122-.55-1.326-.754-1.815-.2-.48-.402-.41-.55-.418l-.47-.01c-.163 0-.428.061-.652.306-.224.244-.856.836-.856 2.04 0 1.204.876 2.367.998 2.53.122.163 1.724 2.63 4.178 3.686.584.252 1.04.402 1.395.515.586.187 1.12.161 1.54.098.47-.07 1.45-.592 1.654-1.163.204-.57.204-1.06.143-1.163-.061-.102-.224-.163-.469-.285z"></path>
</svg>
